<?xml version="1.0" encoding="iso-8859-1"?>
<!-- Generator: Adobe Illustrator 19.0.0, SVG Export Plug-In . SVG Version: 6.00 Build 0)  -->
<svg xmlns="http://www.w3.org/2000/svg" xmlns:xlink="http://www.w3.org/1999/xlink" version="1.1" id="Capa_1" x="0px" y="0px" viewBox="0 0 512 512" style="enable-background:new 0 0 512 512;" xml:space="preserve" width="512px" height="512px">
<g>
	<g>
		<path d="M256,68.267c-122.334,0-221.867,99.533-221.867,221.867S133.666,512,256,512s221.867-99.533,221.867-221.867    S378.334,68.267,256,68.267z M256,494.933c-112.93,0-204.8-91.878-204.8-204.8s91.87-204.8,204.8-204.8s204.8,91.878,204.8,204.8    S368.93,494.933,256,494.933z" fill="#b71c1c"/>
	</g>
</g>
<g>
	<g>
		<path d="M256,102.4c-103.518,0-187.733,84.215-187.733,187.733S152.482,477.867,256,477.867s187.733-84.215,187.733-187.733    S359.518,102.4,256,102.4z M256,460.8c-94.106,0-170.667-76.561-170.667-170.667S161.894,119.467,256,119.467    s170.667,76.561,170.667,170.667S350.106,460.8,256,460.8z" fill="#b71c1c"/>
	</g>
</g>
<g>
	<g>
		<path d="M317.338,0H194.662C186.138,0,179.2,6.938,179.2,15.462v20.275c0,8.525,6.938,15.462,15.462,15.462h122.675    c8.525,0,15.462-6.938,15.462-15.462V15.462C332.8,6.938,325.862,0,317.338,0z M315.733,34.133H196.267V17.067h119.467V34.133z" fill="#b71c1c"/>
	</g>
</g>
<g>
	<g>
		<path d="M221.867,34.133v53.862l9.54-1.135c17.152-2.048,32.034-2.048,49.178,0l9.549,1.135V34.133H221.867z M273.067,68.958    c-5.803-0.469-11.443-0.691-17.067-0.691s-11.264,0.222-17.067,0.691V51.2h34.133V68.958z" fill="#b71c1c"/>
	</g>
</g>
<g>
	<g>
		<path d="M116.284,70.084l-31.42-31.42c-6.025-6.025-15.829-6.025-21.862,0l-58.47,58.47C1.604,100.062,0,103.936,0,108.066    c0,4.13,1.604,8.013,4.531,10.931l31.42,31.42c2.918,2.918,6.801,4.531,10.931,4.531s8.013-1.613,10.931-4.531l58.47-58.462    C122.308,85.922,122.308,76.117,116.284,70.084z M46.882,137.216l-29.15-29.15l56.201-56.201l29.15,29.15L46.882,137.216z" fill="#b71c1c"/>
	</g>
</g>
<g>
	<g>
		<path d="M99.115,84.983l-48.273,48.273l38.093,38.084l5.931-7.561c5.316-6.767,10.65-12.809,16.307-18.466    c5.581-5.572,11.793-11.059,18.466-16.307l7.56-5.939L99.115,84.983z M99.115,133.248c-3.917,3.925-7.791,8.124-11.571,12.561    l-12.561-12.561l24.132-24.141l12.561,12.561C107.238,125.449,103.031,129.331,99.115,133.248z" fill="#b71c1c"/>
	</g>
</g>
<g>
	<g>
		<path d="M256,136.533c-4.71,0-8.533,3.823-8.533,8.533v8.533c0,4.71,3.823,8.533,8.533,8.533s8.533-3.823,8.533-8.533v-8.533    C264.533,140.356,260.71,136.533,256,136.533z" fill="#b71c1c"/>
	</g>
</g>
<g>
	<g>
		<path d="M256,418.133c-4.71,0-8.533,3.823-8.533,8.533v8.533c0,4.71,3.823,8.533,8.533,8.533s8.533-3.823,8.533-8.533v-8.533    C264.533,421.956,260.71,418.133,256,418.133z" fill="#b71c1c"/>
	</g>
</g>
<g>
	<g>
		<path d="M401.067,281.6h-8.533c-4.71,0-8.533,3.823-8.533,8.533s3.823,8.533,8.533,8.533h8.533c4.71,0,8.533-3.823,8.533-8.533    S405.777,281.6,401.067,281.6z" fill="#b71c1c"/>
	</g>
</g>
<g>
	<g>
		<path d="M119.467,281.6h-8.533c-4.71,0-8.533,3.823-8.533,8.533s3.823,8.533,8.533,8.533h8.533c4.71,0,8.533-3.823,8.533-8.533    S124.177,281.6,119.467,281.6z" fill="#b71c1c"/>
	</g>
</g>
<g>
	<g>
		<path d="M364.612,181.521c-3.328-3.328-8.738-3.337-12.066,0l-6.033,6.042c-3.336,3.337-3.336,8.738,0,12.075    c1.664,1.656,3.849,2.492,6.033,2.492c2.185,0,4.369-0.836,6.033-2.492l6.033-6.042    C367.949,190.259,367.949,184.858,364.612,181.521z" fill="#b71c1c"/>
	</g>
</g>
<g>
	<g>
		<path d="M165.487,380.638c-3.328-3.337-8.738-3.328-12.066,0l-6.033,6.042c-3.337,3.337-3.337,8.738,0,12.075    c1.664,1.655,3.849,2.492,6.033,2.492c2.185,0,4.369-0.836,6.033-2.492l6.033-6.042    C168.823,389.376,168.823,383.974,165.487,380.638z" fill="#b71c1c"/>
	</g>
</g>
<g>
	<g>
		<path d="M364.612,386.671l-6.033-6.042c-3.328-3.328-8.738-3.328-12.066,0c-3.328,3.337-3.328,8.738,0,12.075l6.033,6.042    c1.664,1.664,3.849,2.5,6.033,2.5c2.185,0,4.361-0.836,6.033-2.5C367.94,395.409,367.94,390.007,364.612,386.671z" fill="#b71c1c"/>
	</g>
</g>
<g>
	<g>
		<path d="M165.487,187.554l-6.033-6.042c-3.336-3.328-8.738-3.328-12.066,0c-3.328,3.337-3.328,8.738,0,12.075l6.033,6.042    c1.664,1.664,3.849,2.5,6.033,2.5c2.185,0,4.369-0.836,6.033-2.5C168.815,196.292,168.815,190.891,165.487,187.554z" fill="#b71c1c"/>
	</g>
</g>
<g>
	<g>
		<path d="M204.083,407.142c-4.309-1.911-9.353,0.034-11.264,4.335l-3.465,7.799c-1.903,4.309,0.034,9.353,4.343,11.264    c1.126,0.495,2.304,0.734,3.456,0.734c3.277,0,6.4-1.903,7.808-5.069l3.465-7.799C210.33,414.097,208.393,409.054,204.083,407.142    z" fill="#b71c1c"/>
	</g>
</g>
<g>
	<g>
		<path d="M318.302,149.734c-4.318-1.911-9.353,0.034-11.264,4.335l-3.465,7.799c-1.903,4.309,0.034,9.352,4.343,11.264    c1.126,0.495,2.304,0.734,3.456,0.734c3.268,0,6.391-1.894,7.808-5.069l3.465-7.799    C324.548,156.689,322.611,151.646,318.302,149.734z" fill="#b71c1c"/>
	</g>
</g>
<g>
	<g>
		<path d="M134.673,226.961l-7.799-3.465c-4.301-1.903-9.353,0.034-11.264,4.335c-1.911,4.309,0.026,9.353,4.335,11.264l7.799,3.465    c1.126,0.495,2.295,0.734,3.456,0.734c3.268,0,6.391-1.886,7.808-5.069C140.919,233.916,138.982,228.873,134.673,226.961z" fill="#b71c1c"/>
	</g>
</g>
<g>
	<g>
		<path d="M392.064,341.18l-7.799-3.464c-4.301-1.911-9.353,0.026-11.264,4.335s0.026,9.353,4.335,11.264l7.799,3.464    c1.126,0.495,2.295,0.734,3.456,0.734c3.277,0,6.391-1.894,7.808-5.069C398.31,348.134,396.373,343.091,392.064,341.18z" fill="#b71c1c"/>
	</g>
</g>
<g>
	<g>
		<path d="M136.559,336.145c-1.698-4.395-6.63-6.579-11.034-4.89l-7.962,3.072c-4.395,1.698-6.588,6.639-4.89,11.034    c1.306,3.388,4.54,5.47,7.962,5.47c1.024,0,2.057-0.188,3.072-0.58l7.962-3.072C136.064,345.481,138.257,340.54,136.559,336.145z" fill="#b71c1c"/>
	</g>
</g>
<g>
	<g>
		<path d="M399.326,234.897c-1.698-4.395-6.63-6.579-11.034-4.89l-7.962,3.072c-4.395,1.698-6.588,6.639-4.89,11.034    c1.306,3.388,4.531,5.47,7.962,5.47c1.024,0,2.065-0.188,3.072-0.58l7.962-3.072C398.831,244.233,401.024,239.292,399.326,234.897    z" fill="#b71c1c"/>
	</g>
</g>
<g>
	<g>
		<path d="M214.878,159.667l-3.063-7.962c-1.69-4.403-6.622-6.588-11.025-4.898c-4.403,1.69-6.588,6.63-4.898,11.025l3.063,7.962    c1.297,3.388,4.531,5.47,7.962,5.47c1.016,0,2.057-0.188,3.063-0.572C214.383,169.003,216.567,164.062,214.878,159.667z" fill="#b71c1c"/>
	</g>
</g>
<g>
	<g>
		<path d="M316.117,422.443l-3.063-7.962c-1.69-4.403-6.622-6.596-11.025-4.898c-4.403,1.69-6.588,6.63-4.898,11.025l3.063,7.962    c1.297,3.388,4.531,5.47,7.962,5.47c1.024,0,2.057-0.188,3.063-0.572C315.622,431.778,317.807,426.837,316.117,422.443z" fill="#b71c1c"/>
	</g>
</g>
<g>
	<g>
		<path d="M256,256c-18.825,0-34.133,15.309-34.133,34.133c0,18.825,15.309,34.133,34.133,34.133    c18.825,0,34.133-15.309,34.133-34.133S274.825,256,256,256z M256,307.2c-9.412,0-17.067-7.654-17.067-17.067    c0-9.412,7.654-17.067,17.067-17.067c9.412,0,17.067,7.654,17.067,17.067C273.067,299.546,265.412,307.2,256,307.2z" fill="#b71c1c"/>
	</g>
</g>
<g>
	<g>
		<path d="M243.942,266.01l-50.176-50.176c-3.337-3.337-8.738-3.337-12.066,0c-3.337,3.337-3.337,8.73,0,12.066l50.176,50.176    c1.664,1.664,3.849,2.5,6.033,2.5c2.176,0,4.369-0.836,6.033-2.5C247.279,274.739,247.279,269.346,243.942,266.01z" fill="#b71c1c"/>
	</g>
</g>
<g>
	<g>
		<path d="M507.469,97.135l-58.47-58.47c-6.025-6.025-15.829-6.025-21.862,0l-31.42,31.42c-6.025,6.033-6.025,15.838,0,21.871    l58.47,58.462c2.918,2.918,6.801,4.531,10.931,4.531c4.13,0,8.013-1.613,10.931-4.531l31.42-31.411    c2.927-2.927,4.531-6.81,4.531-10.94S510.396,100.053,507.469,97.135z M465.118,137.216l-56.201-56.201l29.15-29.15l56.201,56.201    L465.118,137.216z" fill="#b71c1c"/>
	</g>
</g>
<g>
	<g>
		<path d="M412.877,84.983l-38.084,38.084l7.561,5.939c6.682,5.248,12.885,10.735,18.466,16.307    c5.658,5.666,10.991,11.699,16.307,18.466l5.939,7.561l38.084-38.084L412.877,84.983z M412.885,133.248    c-3.925-3.925-8.124-7.799-12.561-11.58l12.561-12.561l24.132,24.141l-12.561,12.561    C420.685,141.372,416.802,137.173,412.885,133.248z" fill="#b71c1c"/>
	</g>
</g>
<g>
</g>
<g>
</g>
<g>
</g>
<g>
</g>
<g>
</g>
<g>
</g>
<g>
</g>
<g>
</g>
<g>
</g>
<g>
</g>
<g>
</g>
<g>
</g>
<g>
</g>
<g>
</g>
<g>
</g>
</svg>
